<?xml version="1.0" encoding="UTF-8" standalone="no"?>
<svg
   xmlns:dc="http://purl.org/dc/elements/1.1/"
   xmlns:cc="http://creativecommons.org/ns#"
   xmlns:rdf="http://www.w3.org/1999/02/22-rdf-syntax-ns#"
   xmlns:svg="http://www.w3.org/2000/svg"
   xmlns="http://www.w3.org/2000/svg"
   xmlns:xlink="http://www.w3.org/1999/xlink"
   xmlns:sodipodi="http://sodipodi.sourceforge.net/DTD/sodipodi-0.dtd"
   xmlns:inkscape="http://www.inkscape.org/namespaces/inkscape"
   width="1280"
   height="720"
   viewBox="0 0 338.66668 190.5"
   version="1.1"
   id="svg8"
   inkscape:version="1.0.2 (e86c870879, 2021-01-15, custom)"
   sodipodi:docname="icekylin_1280_720.svg">
  <defs
     id="defs2">
    <linearGradient
       inkscape:collect="always"
       id="linearGradient934">
      <stop
         style="stop-color:#ff3c7f;stop-opacity:1"
         offset="0"
         id="stop932" />
      <stop
         style="stop-color:#784ba0;stop-opacity:1"
         offset="0.5"
         id="stop938" />
      <stop
         style="stop-color:#2b86c5;stop-opacity:1"
         offset="1"
         id="stop930" />
    </linearGradient>
    <linearGradient
       inkscape:collect="always"
       xlink:href="#linearGradient934"
       id="linearGradient936"
       x1="248.15186"
       y1="16.431098"
       x2="90.514067"
       y2="174.06889"
       gradientUnits="userSpaceOnUse" />
  </defs>
  <sodipodi:namedview
     id="base"
     pagecolor="#ffffff"
     bordercolor="#666666"
     borderopacity="1.0"
     inkscape:pageopacity="0.0"
     inkscape:pageshadow="2"
     inkscape:zoom="0.99"
     inkscape:cx="622.30841"
     inkscape:cy="369.06919"
     inkscape:document-units="mm"
     inkscape:current-layer="layer1"
     inkscape:document-rotation="0"
     showgrid="false"
     units="px"
     inkscape:pagecheckerboard="true"
     inkscape:window-width="2240"
     inkscape:window-height="1309"
     inkscape:window-x="0"
     inkscape:window-y="0"
     inkscape:window-maximized="1" />
  <metadata
     id="metadata5">
    <rdf:RDF>
      <cc:Work
         rdf:about="">
        <dc:format>image/svg+xml</dc:format>
        <dc:type
           rdf:resource="http://purl.org/dc/dcmitype/StillImage" />
        <dc:title />
      </cc:Work>
    </rdf:RDF>
  </metadata>
  <g
     inkscape:label="图层 1"
     inkscape:groupmode="layer"
     id="layer1">
    <g
       aria-label="icekylin"
       id="text12"
       style="font-style:normal;font-weight:normal;font-size:113.002px;line-height:1.25;font-family:sans-serif;fill:url(#linearGradient936);fill-opacity:1;stroke:none;stroke-width:0.58855">
      <path
         d="m 14.916253,62.535914 q -4.746084,0 -7.1191264,-2.147038 -2.373042,-2.26004 -2.373042,-6.21511 0,-3.95507 3.051054,-6.554116 3.1640564,-2.712048 7.7971384,-2.712048 4.181073,0 6.780119,2.034036 2.599046,2.034036 2.599046,5.763102 0,4.52008 -2.938052,7.232128 -2.938051,2.599046 -7.797137,2.599046 z m -0.904016,60.682076 q -7.3451304,0 -10.7351903,-5.19809 -3.277058002948,-5.1981 -3.277058002948,-13.78625 0,-5.085089 1.243022002948,-12.995229 1.356024,-8.023142 3.39006,-14.916264 1.0170179,-3.616064 2.7120479,-4.972088 1.69503,-1.356023 5.4240964,-1.356023 5.763102,0 5.763102,3.842067 0,2.82505 -2.147038,13.108232 -2.712048,12.43022 -2.712048,16.837295 0,3.39006 0.904016,5.1981 0.904016,1.80803 3.051054,1.80803 2.034036,0 5.085089,-2.82505 3.051054,-2.82505 8.136144,-8.927161 1.356024,-1.582028 3.051054,-1.582028 1.469026,0 2.26004,1.356024 0.904016,1.356025 0.904016,3.729065 0,4.52008 -2.147038,7.00613 -11.187198,13.67324 -20.905369,13.67324 z"
         style="font-style:normal;font-variant:normal;font-weight:normal;font-stretch:normal;font-size:113.002px;font-family:Pacifico;-inkscape-font-specification:Pacifico;fill:url(#linearGradient936);fill-opacity:1;stroke-width:0.58855"
         id="path837" />
      <path
         d="m 49.494682,123.21799 q -11.074196,0 -17.289306,-6.21511 -6.102108,-6.32811 -6.102108,-16.6113 0,-9.153159 3.616064,-16.046281 3.616064,-6.893122 9.379166,-10.622188 5.763102,-3.729065 12.091214,-3.729065 6.21511,0 9.60517,3.729065 3.503062,3.616064 3.503062,9.379166 0,4.746084 -2.147038,8.023142 -2.034036,3.277058 -5.424096,3.277058 -2.147038,0 -3.503062,-1.017018 -1.243022,-1.017018 -1.243022,-2.82505 0,-0.791014 0.226004,-1.808032 0.226004,-1.017018 0.339006,-1.469026 0.56501,-1.69503 0.56501,-3.164056 0,-1.469026 -0.791014,-2.26004 -0.678012,-0.791014 -2.034036,-0.791014 -2.599046,0 -4.859086,2.373042 -2.26004,2.26004 -3.616064,6.21511 -1.356024,3.95507 -1.356024,8.701154 0,13.108233 11.413202,13.108233 4.633082,0 9.944176,-3.05105 5.424096,-3.16406 10.622188,-9.379171 1.356024,-1.582028 3.051054,-1.582028 1.469026,0 2.26004,1.356024 0.904016,1.356025 0.904016,3.729065 0,4.29408 -2.147038,7.00613 -5.311094,6.55411 -12.769226,10.17018 -7.34513,3.50306 -14.238252,3.50306 z"
         style="font-style:normal;font-variant:normal;font-weight:normal;font-stretch:normal;font-size:113.002px;font-family:Pacifico;-inkscape-font-specification:Pacifico;fill:url(#linearGradient936);fill-opacity:1;stroke-width:0.58855"
         id="path839" />
      <path
         d="m 119.89471,97.453531 q 1.46903,0 2.26004,1.356024 0.90402,1.356025 0.90402,3.729065 0,4.52008 -2.14704,7.00613 -4.18108,5.08509 -11.86521,9.37916 -7.57114,4.29408 -16.27229,4.29408 -11.86521,0 -18.419326,-6.44112 -6.554116,-6.44111 -6.554116,-17.628309 0,-7.797138 3.277058,-14.464256 3.277058,-6.78012 9.04016,-10.73519 5.876104,-3.955069 13.221234,-3.955069 6.554116,0 10.50919,3.955069 3.95507,3.842068 3.95507,10.509186 0,7.797138 -5.6501,13.447238 -5.537102,5.537101 -18.871338,8.814161 2.82505,5.19809 10.73519,5.19809 5.08509,0 11.526208,-3.50306 6.55411,-3.61607 11.3002,-9.379171 1.35602,-1.582028 3.05105,-1.582028 z M 91.418206,81.068241 q -4.181074,0 -7.119126,4.859086 -2.82505,4.859086 -2.82505,11.752208 v 0.226004 q 6.667118,-1.582028 10.509186,-4.746084 3.842068,-3.164056 3.842068,-7.34513 0,-2.147038 -1.243022,-3.39006 -1.13002,-1.356024 -3.164056,-1.356024 z"
         style="font-style:normal;font-variant:normal;font-weight:normal;font-stretch:normal;font-size:113.002px;font-family:Pacifico;-inkscape-font-specification:Pacifico;fill:url(#linearGradient936);fill-opacity:1;stroke-width:0.58855"
         id="path841" />
      <path
         d="m 179.22072,97.453531 q 1.46902,0 2.26004,1.356024 0.90401,1.356025 0.90401,3.729065 0,4.52008 -2.14703,7.00613 -5.08509,6.21511 -10.28319,9.94417 -5.19809,3.72907 -12.31721,3.72907 -8.70116,0 -14.01225,-4.97209 -5.3111,-4.97209 -5.3111,-13.22123 0,-4.40708 4.52008,-6.328117 4.97209,-2.147038 7.11913,-4.52008 2.14704,-2.486044 2.14704,-5.989106 0,-2.034036 -0.90402,-3.051054 -0.79101,-1.017018 -2.03403,-1.017018 -3.05106,0 -6.78012,4.407078 -3.61607,4.407078 -6.78012,11.413202 -3.16406,6.893125 -4.97209,14.238255 -1.24302,5.31109 -2.93805,7.23213 -1.58203,1.80803 -5.08509,1.80803 -3.50307,0 -5.1981,-2.48605 -1.58202,-2.59904 -2.14703,-7.91014 -0.56501,-5.31109 -0.56501,-15.594273 0,-17.402308 3.50306,-36.273641 3.61606,-18.871334 10.50918,-31.64056 7.00613,-12.882228 16.7243,-12.882228 5.19809,0 8.36215,4.52008 3.27706,4.407078 3.27706,11.526204 0,11.413202 -6.66712,23.73042 -6.66712,12.204216 -21.69639,28.589505 -0.339,5.876104 -0.339,12.091214 5.42409,-14.12525 12.43022,-20.453362 7.00612,-6.441113 13.10823,-6.441113 5.6501,0 9.04016,3.842067 3.50306,3.842068 3.50306,9.492168 0,6.21511 -3.16405,11.413202 -3.16406,5.198092 -10.8482,9.266167 0.45201,3.05105 2.71205,4.97209 2.37304,1.80803 5.6501,1.80803 3.50306,0 6.78012,-2.71205 3.27706,-2.71205 8.58815,-9.040161 1.35603,-1.582028 3.05106,-1.582028 z M 143.06008,27.618296 q -2.03404,0 -4.52008,5.876104 -2.48605,5.763102 -4.85909,15.707278 -2.26004,9.831174 -3.72906,21.470379 7.00612,-8.249145 11.5262,-17.967317 4.63308,-9.718172 4.63308,-17.628312 0,-3.616064 -0.79101,-5.537098 -0.79102,-1.921034 -2.26004,-1.921034 z"
         style="font-style:normal;font-variant:normal;font-weight:normal;font-stretch:normal;font-size:113.002px;font-family:Pacifico;-inkscape-font-specification:Pacifico;fill:url(#linearGradient936);fill-opacity:1;stroke-width:0.58855"
         id="path843" />
      <path
         d="m 231.08861,97.679535 q 1.46902,0 2.26004,1.469026 0.90401,1.356029 0.90401,3.503059 0,2.59905 -0.79101,4.06808 -0.79102,1.46902 -2.48605,2.59904 L 209.27922,123.896 q -4.29408,23.39141 -11.3002,36.72565 -6.89312,13.44724 -17.62831,13.44724 -5.7631,0 -9.37917,-3.61607 -3.61606,-3.50306 -3.61606,-9.26616 0,-5.3111 2.37304,-10.84819 2.48604,-5.5371 9.04016,-12.76923 6.66712,-7.11913 18.75833,-16.38529 l 0.33901,-2.59904 q 0.79101,-4.18108 1.80803,-11.97822 -2.26004,8.13615 -6.32811,12.43022 -4.06807,4.18108 -8.58815,4.18108 -5.08509,0 -8.36215,-4.63308 -3.16406,-4.74609 -3.16406,-11.75221 0,-8.475153 1.13002,-15.481277 1.13002,-7.119126 3.72907,-15.029266 1.13002,-3.39006 3.16405,-4.859086 2.03404,-1.469025 6.44112,-1.469025 2.48604,0 3.39006,0.791013 1.01702,0.791014 1.01702,2.373042 0,0.904016 -1.24303,6.102108 -1.13002,4.181074 -1.80803,7.571134 -0.90401,4.633082 -1.58203,8.927158 -0.67801,4.181074 -0.67801,6.893119 0,4.29408 2.37304,4.29408 1.69503,0 4.18108,-3.39006 2.59904,-3.39006 5.42409,-10.283183 2.93806,-6.893122 5.6501,-16.9503 0.90402,-3.39006 2.71205,-4.859086 1.92104,-1.469025 5.6501,-1.469025 2.59905,0 3.61607,0.678011 1.01701,0.678012 1.01701,2.26004 0,2.82505 -2.93805,19.436344 l -2.93805,18.193319 q 8.70115,-6.55411 16.9503,-11.978209 1.46903,-0.904016 2.59905,-0.904016 z m -49.49488,65.428155 q 2.82505,0 6.32811,-6.55411 3.50306,-6.55412 7.00613,-21.80939 -8.70116,7.34513 -12.65623,13.33424 -3.84207,6.1021 -3.84207,10.62218 0,1.92104 0.67802,3.16406 0.79101,1.24302 2.48604,1.24302 z"
         style="font-style:normal;font-variant:normal;font-weight:normal;font-stretch:normal;font-size:113.002px;font-family:Pacifico;-inkscape-font-specification:Pacifico;fill:url(#linearGradient936);fill-opacity:1;stroke-width:0.58855"
         id="path845" />
      <path
         d="m 270.18709,97.453531 q 1.46902,0 2.26004,1.356024 0.90401,1.356025 0.90401,3.729065 0,4.52008 -2.14704,7.00613 -4.85908,5.9891 -10.62218,9.83117 -5.6501,3.84207 -12.88223,3.84207 -9.94418,0 -14.80326,-9.04016 -4.74609,-9.04016 -4.74609,-23.391417 0,-13.786244 3.50306,-31.414555 3.61607,-17.628312 10.50919,-30.284536 7.00612,-12.656224 16.61129,-12.656224 5.4241,0 8.47515,5.08509 3.16406,4.972088 3.16406,14.351254 0,13.447238 -7.45813,31.188552 -7.45813,17.741313 -20.22736,35.143626 0.79101,4.63308 2.59905,6.66711 1.80803,1.92104 4.74608,1.92104 4.63308,0 8.13614,-2.59905 3.50307,-2.71205 8.92716,-9.153161 1.35603,-1.582028 3.05106,-1.582028 z M 256.28784,27.618296 q -2.59905,0 -5.8761,9.379166 -3.27706,9.379166 -5.76311,23.278412 -2.48604,13.899245 -2.71204,26.668471 8.02314,-13.221234 12.76922,-26.442467 4.74609,-13.334236 4.74609,-24.29543 0,-8.588152 -3.16406,-8.588152 z"
         style="font-style:normal;font-variant:normal;font-weight:normal;font-stretch:normal;font-size:113.002px;font-family:Pacifico;-inkscape-font-specification:Pacifico;fill:url(#linearGradient936);fill-opacity:1;stroke-width:0.58855"
         id="path847" />
      <path
         d="m 279.00103,62.535914 q -4.74608,0 -7.11913,-2.147038 -2.37304,-2.26004 -2.37304,-6.21511 0,-3.95507 3.05106,-6.554116 3.16405,-2.712048 7.79713,-2.712048 4.18108,0 6.78012,2.034036 2.59905,2.034036 2.59905,5.763102 0,4.52008 -2.93805,7.232128 -2.93805,2.599046 -7.79714,2.599046 z m -0.90402,60.682076 q -7.34513,0 -10.73519,-5.19809 -3.27705,-5.1981 -3.27705,-13.78625 0,-5.085089 1.24302,-12.995229 1.35602,-8.023142 3.39006,-14.916264 1.01702,-3.616064 2.71205,-4.972088 1.69503,-1.356023 5.42409,-1.356023 5.7631,0 5.7631,3.842067 0,2.82505 -2.14703,13.108232 -2.71205,12.43022 -2.71205,16.837295 0,3.39006 0.90401,5.1981 0.90402,1.80803 3.05106,1.80803 2.03403,0 5.08509,-2.82505 3.05105,-2.82505 8.13614,-8.927161 1.35603,-1.582028 3.05106,-1.582028 1.46902,0 2.26004,1.356024 0.90401,1.356025 0.90401,3.729065 0,4.52008 -2.14704,7.00613 -11.18719,13.67324 -20.90537,13.67324 z"
         style="font-style:normal;font-variant:normal;font-weight:normal;font-stretch:normal;font-size:113.002px;font-family:Pacifico;-inkscape-font-specification:Pacifico;fill:url(#linearGradient936);fill-opacity:1;stroke-width:0.58855"
         id="path849" />
      <path
         d="m 300.01925,123.21799 q -4.29408,0 -6.10211,-4.52008 -1.69503,-4.52008 -1.69503,-14.46426 0,-14.690259 4.18108,-27.911493 1.01701,-3.277058 3.27705,-4.746084 2.37305,-1.582027 6.55412,-1.582027 2.26004,0 3.16406,0.565009 0.90401,0.56501 0.90401,2.147038 0,1.808032 -1.69503,8.136144 -1.13002,4.52008 -1.80803,7.91014 -0.67801,3.39006 -1.13002,8.362148 3.72907,-9.718172 8.36215,-15.82028 4.63308,-6.102108 9.04016,-8.701154 4.52008,-2.599045 8.24914,-2.599045 3.61607,0 5.4241,1.921033 1.92103,1.808032 1.92103,5.424096 0,2.938052 -1.24302,11.074196 -1.13002,6.893122 -1.80803,13.108229 -0.67801,6.10211 -0.67801,13.67325 0,4.29407 -1.80803,6.21511 -1.69503,1.80803 -5.6501,1.80803 -3.72907,0 -5.4241,-1.92104 -1.69503,-1.92103 -1.69503,-5.7631 0,-4.52008 1.58203,-14.91626 1.35602,-9.040163 1.35602,-11.526207 0,-1.808032 -1.24302,-1.808032 -1.46903,0 -4.18107,3.842068 -2.59905,3.729066 -5.4241,9.944181 -2.71205,6.21511 -4.40708,13.10823 -1.24302,5.31109 -2.93805,7.23213 -1.58203,1.80803 -5.08509,1.80803 z"
         style="font-style:normal;font-variant:normal;font-weight:normal;font-stretch:normal;font-size:113.002px;font-family:Pacifico;-inkscape-font-specification:Pacifico;fill:url(#linearGradient936);fill-opacity:1;stroke-width:0.58855"
         id="path851" />
    </g>
  </g>
</svg>
