<?xml version="1.0" encoding="UTF-8" standalone="no"?>
<svg
   xmlns:dc="http://purl.org/dc/elements/1.1/"
   xmlns:cc="http://creativecommons.org/ns#"
   xmlns:rdf="http://www.w3.org/1999/02/22-rdf-syntax-ns#"
   xmlns:svg="http://www.w3.org/2000/svg"
   xmlns="http://www.w3.org/2000/svg"
   xmlns:xlink="http://www.w3.org/1999/xlink"
   xmlns:sodipodi="http://sodipodi.sourceforge.net/DTD/sodipodi-0.dtd"
   xmlns:inkscape="http://www.inkscape.org/namespaces/inkscape"
   width="1280"
   height="360"
   viewBox="0 0 338.66666 95.250005"
   version="1.1"
   id="svg8"
   inkscape:version="1.0.2 (e86c870879, 2021-01-15, custom)"
   sodipodi:docname="love_1280_360.svg">
  <defs
     id="defs2">
    <linearGradient
       inkscape:collect="always"
       id="linearGradient1468">
      <stop
         style="stop-color:#2b86c5;stop-opacity:1"
         offset="0"
         id="stop1464" />
      <stop
         style="stop-color:#784ba0;stop-opacity:1"
         offset="0.5"
         id="stop1472" />
      <stop
         style="stop-color:#ff3c7f;stop-opacity:1"
         offset="1"
         id="stop1466" />
    </linearGradient>
    <linearGradient
       inkscape:collect="always"
       xlink:href="#linearGradient1468"
       id="linearGradient1470"
       x1="202.14234"
       y1="14.815992"
       x2="136.52432"
       y2="80.434008"
       gradientUnits="userSpaceOnUse" />
  </defs>
  <sodipodi:namedview
     id="base"
     pagecolor="#ffffff"
     bordercolor="#666666"
     borderopacity="1.0"
     inkscape:pageopacity="0.0"
     inkscape:pageshadow="2"
     inkscape:zoom="0.24748737"
     inkscape:cx="-631.34489"
     inkscape:cy="-125.49136"
     inkscape:document-units="mm"
     inkscape:current-layer="layer1"
     inkscape:document-rotation="0"
     showgrid="false"
     units="px"
     inkscape:window-width="2240"
     inkscape:window-height="1309"
     inkscape:window-x="0"
     inkscape:window-y="0"
     inkscape:window-maximized="1" />
  <metadata
     id="metadata5">
    <rdf:RDF>
      <cc:Work
         rdf:about="">
        <dc:format>image/svg+xml</dc:format>
        <dc:type
           rdf:resource="http://purl.org/dc/dcmitype/StillImage" />
        <dc:title></dc:title>
      </cc:Work>
    </rdf:RDF>
  </metadata>
  <g
     inkscape:label="图层 1"
     inkscape:groupmode="layer"
     id="layer1">
    <g
       aria-label="love,live,linux"
       id="text1404"
       style="font-style:normal;font-weight:normal;font-size:59.7614px;line-height:1.25;font-family:sans-serif;fill:#1a1a1a;fill-opacity:1;stroke:none;stroke-width:0.311256">
      <path
         id="path1434"
         style="font-style:normal;font-variant:normal;font-weight:normal;font-stretch:normal;font-size:59.7614px;font-family:Pacifico;-inkscape-font-specification:Pacifico;stroke-width:0.311256;fill-opacity:1;fill:url(#linearGradient1470)"
         d="m 336.99322,59.457757 q 0.7769,0 1.19523,0.717137 0.47809,0.717137 0.47809,1.972126 0,2.15141 -1.01594,3.705207 -3.52592,5.438287 -10.03992,5.438287 -2.80878,0 -5.01995,-1.075705 -2.15141,-1.135467 -3.52593,-3.227116 -3.46616,4.243059 -8.06778,4.243059 -3.28688,0 -5.19925,-1.912364 -1.91236,-1.912365 -1.91236,-5.079719 0,-2.98807 1.37451,-4.840673 1.37451,-1.852604 3.88449,-1.852604 2.15141,0 2.15141,1.613558 0,0.478091 -0.11952,1.673319 l -0.17928,2.270933 q 0,1.792842 1.55379,1.792842 1.13547,0 2.15141,-1.314751 1.07571,-1.374512 1.73308,-3.705206 0.71714,-2.330695 0.71714,-5.13948 0,-2.151411 -0.53785,-3.585684 -0.53786,-1.494035 -1.31475,-1.494035 -0.65738,0 -0.95619,0.358568 -0.2988,0.298807 -0.59761,1.075705 -0.35857,0.956183 -0.95618,1.553797 -0.59762,0.537852 -2.09165,0.537852 -1.31475,0 -2.09165,-0.896421 -0.7769,-0.956182 -0.7769,-2.868547 0,-3.047831 1.85261,-4.780912 1.8526,-1.73308 4.78091,-1.73308 2.50998,0 4.54186,1.254989 2.03189,1.195228 3.1076,3.525923 1.79284,-2.390456 4.00401,-3.585684 2.27093,-1.195228 4.42234,-1.195228 2.3307,0 3.52593,1.075705 1.25499,1.075705 1.25499,3.466161 0,2.689263 -1.01595,4.243059 -1.01594,1.494035 -2.45022,1.494035 -1.31475,0 -1.79284,-0.537852 -0.47809,-0.537853 -0.71713,-1.553797 -0.11953,-0.717137 -0.35857,-1.075705 -0.23905,-0.358568 -0.83666,-0.358568 -0.71714,0 -1.5538,1.374512 -0.7769,1.314751 -1.37451,3.525922 -0.53785,2.211172 -0.53785,4.601628 0,2.689263 1.19522,4.302821 1.25499,1.613557 2.98807,1.613557 3.28688,0 6.514,-4.72115 0.59761,-0.896421 1.61355,-0.896421 z m -52.76929,11.832757 q -2.68926,0 -4.42234,-2.450217 -1.67332,-2.509979 -1.67332,-6.215186 0,-4.482105 0.59762,-8.187311 0.59761,-3.764969 1.97212,-7.948266 0.59762,-1.792842 1.67332,-2.569741 1.07571,-0.776898 3.4064,-0.776898 1.31475,0 1.79284,0.41833 0.53786,0.41833 0.53786,1.254989 0,0.478092 -0.65738,3.227116 -0.59761,2.211172 -0.95618,4.004014 -1.19523,6.274946 -1.19523,8.366595 0,1.25499 0.29881,1.792842 0.2988,0.478091 0.95618,0.478091 0.89642,0 2.21117,-1.792841 1.37451,-1.792842 2.86855,-5.438288 1.55379,-3.645445 2.98807,-8.964209 0.47809,-1.792842 1.43427,-2.569741 1.01595,-0.776898 2.98807,-0.776898 1.37451,0 1.91237,0.358569 0.53785,0.298807 0.53785,1.195228 0,1.494035 -1.49404,8.187311 -1.67332,7.649459 -1.67332,9.442301 0,1.135467 0.4781,1.792842 0.47809,0.597614 1.25498,0.597614 1.19523,0 2.80879,-1.434274 1.67332,-1.494034 4.42234,-4.780911 0.71714,-0.83666 1.61356,-0.83666 0.7769,0 1.19523,0.717137 0.47809,0.717137 0.47809,1.972126 0,2.390456 -1.13547,3.705207 -2.56974,3.167354 -5.55781,5.199241 -2.9283,2.031888 -6.69327,2.031888 -2.86855,0 -4.24306,-2.211172 -1.31475,-2.211172 -1.31475,-6.215185 -1.01595,4.063775 -3.04783,6.274947 -2.03189,2.15141 -4.36259,2.15141 z m -31.49417,0 q -2.27093,0 -3.22712,-2.390456 -0.89642,-2.390456 -0.89642,-7.649459 0,-7.768982 2.21118,-14.761065 0.53785,-1.733081 1.73308,-2.509979 1.25499,-0.83666 3.46616,-0.83666 1.19522,0 1.67332,0.298807 0.47809,0.298807 0.47809,1.135467 0,0.956182 -0.89642,4.30282 -0.59762,2.390456 -0.95619,4.183298 -0.35856,1.792842 -0.59761,4.422344 1.97213,-5.13948 4.42234,-8.366596 2.45022,-3.227115 4.78092,-4.601628 2.39045,-1.374512 4.36258,-1.374512 3.88449,0 3.88449,3.884491 0,2.330695 -1.31475,8.426357 -1.13547,5.199242 -1.13547,6.872561 0,2.390456 1.73308,2.390456 1.19523,0 2.80879,-1.434274 1.67332,-1.494034 4.42234,-4.780911 0.71714,-0.83666 1.61356,-0.83666 0.7769,0 1.19523,0.717137 0.47809,0.717137 0.47809,1.972126 0,2.390456 -1.13547,3.705207 -2.56974,3.167354 -5.55781,5.199241 -2.92831,2.031888 -6.69328,2.031888 -3.04783,0 -4.60162,-1.733081 -1.5538,-1.792842 -1.5538,-5.13948 0,-1.673319 0.83666,-5.97614 0.7769,-3.764968 0.7769,-5.199241 0,-0.956183 -0.65738,-0.956183 -0.7769,0 -2.21117,2.031888 -1.37451,1.972126 -2.86855,5.259003 -1.43427,3.286877 -2.33069,6.932322 -0.65738,2.808786 -1.5538,3.824729 -0.83666,0.956183 -2.68926,0.956183 z M 241.61424,39.198643 q -2.50998,0 -3.76497,-1.135467 -1.25499,-1.195228 -1.25499,-3.286877 0,-2.091648 1.61356,-3.466161 1.67332,-1.434273 4.12354,-1.434273 2.21117,0 3.58568,1.075705 1.37451,1.075705 1.37451,3.047831 0,2.390456 -1.55379,3.82473 -1.5538,1.374512 -4.12354,1.374512 z m -0.47809,32.091871 q -3.88449,0 -5.67733,-2.749024 -1.73308,-2.749025 -1.73308,-7.290891 0,-2.689263 0.65737,-6.872561 0.71714,-4.243059 1.79284,-7.888504 0.53786,-1.912365 1.43428,-2.629502 0.89642,-0.717137 2.86854,-0.717137 3.04784,0 3.04784,2.031888 0,1.494035 -1.13547,6.932322 -1.43427,6.573754 -1.43427,8.904448 0,1.792842 0.47809,2.749025 0.47809,0.956182 1.61356,0.956182 1.0757,0 2.68926,-1.494035 1.61356,-1.494035 4.30282,-4.72115 0.71714,-0.83666 1.61356,-0.83666 0.77689,0 1.19522,0.717137 0.4781,0.717137 0.4781,1.972126 0,2.390456 -1.13547,3.705207 -5.91638,7.231129 -11.05586,7.231129 z m -4.1832,-13.625599 q 0.7769,0 1.19523,0.717137 0.47809,0.717137 0.47809,1.972126 0,2.390456 -1.13547,3.705207 -2.56974,3.167354 -5.61757,5.199241 -2.98807,2.031888 -6.8128,2.031888 -5.259,0 -7.82874,-4.780912 -2.50998,-4.780912 -2.50998,-12.370609 0,-7.290891 1.8526,-16.613669 1.91237,-9.322778 5.55781,-16.016055 3.70521,-6.693277 8.78493,-6.693277 2.86855,0 4.48211,2.689263 1.67331,2.629502 1.67331,7.589698 0,7.111606 -3.94425,16.494146 -3.94425,9.382539 -10.69729,18.585795 0.41833,2.450217 1.37451,3.525922 0.95619,1.015944 2.50998,1.015944 2.45022,0 4.30282,-1.374512 1.85261,-1.434274 4.72115,-4.840673 0.71714,-0.83666 1.61356,-0.83666 z M 229.6023,20.732371 q -1.37451,0 -3.10759,4.960196 -1.73308,4.960196 -3.04783,12.310848 -1.31476,7.350652 -1.43428,14.10369 4.24306,-6.992084 6.75304,-13.984167 2.50998,-7.051845 2.50998,-12.848701 0,-4.541866 -1.67332,-4.541866 z m -26.71327,59.701637 q -1.31475,0 -2.09164,-0.597614 -0.7769,-0.597614 -0.7769,-1.912365 0,-0.537853 0.17928,-1.254989 0.65738,-2.749025 0.95618,-5.079719 0.35857,-2.330695 0.35857,-5.199242 0,-2.98807 1.37451,-4.601627 1.43428,-1.613558 3.64545,-1.613558 2.15141,0 3.22712,1.195228 1.13546,1.135466 1.13546,3.107592 0,2.091649 -1.25499,5.55781 -1.25499,3.466162 -3.04783,6.753038 -1.19523,2.211172 -1.91236,2.928309 -0.65738,0.717137 -1.79285,0.717137 z m -6.81265,-20.976251 q 0.7769,0 1.19523,0.717137 0.47809,0.717137 0.47809,1.972126 0,2.15141 -1.01594,3.705207 -1.67332,2.56974 -4.42235,4.004013 -2.68926,1.434274 -6.45423,1.434274 -5.73709,0 -8.90445,-3.4064 -3.16735,-3.466161 -3.16735,-9.322778 0,-4.123536 1.73308,-7.649459 1.73308,-3.585684 4.78091,-5.677333 3.10759,-2.091649 6.99208,-2.091649 3.46617,0 5.55781,2.091649 2.09165,2.031888 2.09165,5.55781 0,4.123537 -2.98807,7.111607 -2.9283,2.928308 -10.03991,4.661389 1.43427,2.749024 4.84067,2.749024 2.45022,0 4.00402,-1.135467 1.61355,-1.135466 3.7052,-3.824729 0.71714,-0.896421 1.61356,-0.896421 z m -9.80087,-10.458245 q -2.21117,0 -3.76497,2.56974 -1.49403,2.569741 -1.49403,6.215186 v 0.119523 q 3.52592,-0.83666 5.55781,-2.509979 2.03189,-1.673319 2.03189,-3.884491 0,-1.135467 -0.65738,-1.792842 -0.59761,-0.717137 -1.67332,-0.717137 z m -8.84466,3.82473 q 0.17929,-0.05976 0.59762,-0.05976 0.89642,0 1.37451,0.597614 0.47809,0.597614 0.47809,1.613558 0,1.852603 -0.71714,2.928309 -0.71713,1.015943 -2.15141,1.494035 -2.74902,0.896421 -5.85662,0.896421 -2.6295,0 -4.96019,-0.717137 -1.73308,2.808785 -3.82473,5.796855 -2.39046,3.4064 -4.12354,4.661389 -1.73308,1.25499 -3.94425,1.25499 -2.45022,0 -3.88449,-1.912365 -1.37451,-1.912365 -1.73308,-6.035901 -0.71714,-8.366596 -0.71714,-14.641543 v -2.091649 q 0.0598,-1.972126 1.07571,-2.749024 1.01594,-0.776898 3.04783,-0.776898 1.5538,0 2.27093,0.717137 0.7769,0.657375 0.7769,2.270933 0,6.872561 0.83666,17.868658 3.58568,-5.318765 5.37853,-8.486119 -0.89643,-1.73308 -0.89643,-4.123536 0,-2.031888 0.89643,-3.944252 0.89642,-1.912365 2.45021,-3.107593 1.5538,-1.195228 3.52593,-1.195228 1.73308,0 2.80878,1.254989 1.07571,1.195228 1.07571,3.525923 0,2.689263 -1.43428,6.155424 2.27094,-0.119523 6.0359,-0.896421 z M 140.37898,39.198643 q -2.50998,0 -3.76497,-1.135467 -1.25499,-1.195228 -1.25499,-3.286877 0,-2.091648 1.61356,-3.466161 1.67332,-1.434273 4.12354,-1.434273 2.21117,0 3.58568,1.075705 1.37451,1.075705 1.37451,3.047831 0,2.390456 -1.55379,3.82473 -1.5538,1.374512 -4.12354,1.374512 z m -0.47809,32.091871 q -3.88449,0 -5.67733,-2.749024 -1.73308,-2.749025 -1.73308,-7.290891 0,-2.689263 0.65737,-6.872561 0.71714,-4.243059 1.79284,-7.888504 0.53786,-1.912365 1.43428,-2.629502 0.89642,-0.717137 2.86854,-0.717137 3.04784,0 3.04784,2.031888 0,1.494035 -1.13547,6.932322 -1.43427,6.573754 -1.43427,8.904448 0,1.792842 0.47809,2.749025 0.47809,0.956182 1.61356,0.956182 1.0757,0 2.68926,-1.494035 1.61356,-1.494035 4.30282,-4.72115 0.71714,-0.83666 1.61356,-0.83666 0.77689,0 1.19522,0.717137 0.4781,0.717137 0.4781,1.972126 0,2.390456 -1.13547,3.705207 -5.91638,7.231129 -11.05586,7.231129 z M 135.7177,57.664915 q 0.7769,0 1.19523,0.717137 0.47809,0.717137 0.47809,1.972126 0,2.390456 -1.13547,3.705207 -2.56974,3.167354 -5.61757,5.199241 -2.98807,2.031888 -6.8128,2.031888 -5.259,0 -7.82874,-4.780912 -2.50998,-4.780912 -2.50998,-12.370609 0,-7.290891 1.8526,-16.613669 1.91237,-9.322778 5.55781,-16.016055 3.70521,-6.693277 8.78493,-6.693277 2.86855,0 4.4821,2.689263 1.67332,2.629502 1.67332,7.589698 0,7.111606 -3.94425,16.494146 -3.94425,9.382539 -10.69729,18.585795 0.41833,2.450217 1.37451,3.525922 0.95618,1.015944 2.50998,1.015944 2.45022,0 4.30282,-1.374512 1.8526,-1.434274 4.72115,-4.840673 0.71714,-0.83666 1.61356,-0.83666 z m -7.35065,-36.932544 q -1.37451,0 -3.1076,4.960196 -1.73308,4.960196 -3.04783,12.310848 -1.31475,7.350652 -1.43427,14.10369 4.24306,-6.992084 6.75304,-13.984167 2.50998,-7.051845 2.50998,-12.848701 0,-4.541866 -1.67332,-4.541866 z m -26.71328,59.701637 q -1.31475,0 -2.091644,-0.597614 -0.776898,-0.597614 -0.776898,-1.912365 0,-0.537853 0.179284,-1.254989 0.657375,-2.749025 0.956182,-5.079719 0.358566,-2.330695 0.358566,-5.199242 0,-2.98807 1.37451,-4.601627 1.43428,-1.613558 3.64545,-1.613558 2.15141,0 3.22712,1.195228 1.13546,1.135466 1.13546,3.107592 0,2.091649 -1.25499,5.55781 -1.25499,3.466162 -3.04783,6.753038 -1.19523,2.211172 -1.91236,2.928309 -0.65738,0.717137 -1.79285,0.717137 z M 94.84112,59.457757 q 0.776898,0 1.195228,0.717137 0.478091,0.717137 0.478091,1.972126 0,2.15141 -1.015943,3.705207 -1.67332,2.56974 -4.422344,4.004013 -2.689263,1.434274 -6.454231,1.434274 -5.737094,0 -8.904448,-3.4064 -3.167354,-3.466161 -3.167354,-9.322778 0,-4.123536 1.73308,-7.649459 1.733081,-3.585684 4.780912,-5.677333 3.107593,-2.091649 6.992084,-2.091649 3.466161,0 5.55781,2.091649 2.091649,2.031888 2.091649,5.55781 0,4.123537 -2.98807,7.111607 -2.928309,2.928308 -10.039915,4.661389 1.434273,2.749024 4.840673,2.749024 2.450217,0 4.004014,-1.135467 1.613557,-1.135466 3.705206,-3.824729 0.717137,-0.896421 1.613558,-0.896421 z M 85.040251,48.999512 q -2.211172,0 -3.764968,2.56974 -1.494035,2.569741 -1.494035,6.215186 v 0.119523 q 3.525922,-0.83666 5.55781,-2.509979 2.031887,-1.673319 2.031887,-3.884491 0,-1.135467 -0.657375,-1.792842 -0.597614,-0.717137 -1.673319,-0.717137 z m -8.844648,3.82473 q 0.179284,-0.05976 0.597614,-0.05976 0.896421,0 1.374512,0.597614 0.478092,0.597614 0.478092,1.613558 0,1.852603 -0.717137,2.928309 -0.717137,1.015943 -2.151411,1.494035 -2.749024,0.896421 -5.856617,0.896421 -2.629501,0 -4.960196,-0.717137 -1.73308,2.808785 -3.824729,5.796855 -2.390456,3.4064 -4.123537,4.661389 -1.73308,1.25499 -3.944252,1.25499 -2.450217,0 -3.884491,-1.912365 -1.374512,-1.912365 -1.73308,-6.035901 -0.717137,-8.366596 -0.717137,-14.641543 v -2.091649 q 0.05976,-1.972126 1.075705,-2.749024 1.015944,-0.776898 3.047831,-0.776898 1.553797,0 2.270933,0.717137 0.776899,0.657375 0.776899,2.270933 0,6.872561 0.836659,17.868658 3.585684,-5.318765 5.378526,-8.486119 -0.896421,-1.73308 -0.896421,-4.123536 0,-2.031888 0.896421,-3.944252 0.896421,-1.912365 2.450217,-3.107593 1.553797,-1.195228 3.525923,-1.195228 1.73308,0 2.808786,1.254989 1.075705,1.195228 1.075705,3.525923 0,2.689263 -1.434274,6.155424 2.270933,-0.119523 6.035901,-0.896421 z M 49.542221,52.644958 q 0.776899,0 1.195228,0.776898 0.41833,0.776898 0.41833,1.972126 0,2.868547 -1.73308,3.4064 -3.585684,1.254989 -7.888505,1.434273 -1.135467,5.019958 -4.482105,8.067789 -3.346638,2.98807 -7.589697,2.98807 -3.585684,0 -6.155424,-1.733081 -2.509979,-1.73308 -3.82473,-4.601627 -1.314751,-2.868548 -1.314751,-6.215186 0,-4.541866 1.733081,-8.067789 1.73308,-3.585683 4.780912,-5.55781 3.047831,-2.031887 6.753038,-2.031887 4.541866,0 7.29089,3.167354 2.808786,3.107593 3.286877,7.70922 2.808786,-0.179284 6.693277,-1.195228 0.478091,-0.119522 0.836659,-0.119522 z M 29.940483,64.955806 q 1.912364,0 3.286877,-1.553797 1.434273,-1.553796 1.912364,-4.482105 -1.852603,-1.254989 -2.868547,-3.286877 -0.956182,-2.031887 -0.956182,-4.30282 0,-0.956183 0.179284,-1.912365 h -0.298807 q -2.390456,0 -4.004014,2.330695 -1.553796,2.270933 -1.553796,6.454231 0,3.286877 1.254989,5.019957 1.314751,1.733081 3.047832,1.733081 z m -7.70912,-7.290891 q 0.776899,0 1.195228,0.717137 0.478092,0.717137 0.478092,1.972126 0,2.390456 -1.135467,3.705207 -2.56974,3.167354 -5.617571,5.199241 -2.98807,2.031888 -6.8128,2.031888 -5.2590029,0 -7.828743,-4.780912 Q 1.2325287e-4,61.72869 1.2325287e-4,54.138993 q 0,-7.290891 1.85260334713,-16.613669 1.9123647,-9.322778 5.55781,-16.016055 3.7052064,-6.693277 8.7849254,-6.693277 2.868547,0 4.482105,2.689263 1.673319,2.629502 1.673319,7.589698 0,7.111606 -3.944252,16.494146 -3.944252,9.382539 -10.6972904,18.585795 0.4183298,2.450217 1.3745122,3.525922 0.9561822,1.015944 2.5099792,1.015944 2.450217,0 4.30282,-1.374512 1.852604,-1.434274 4.721151,-4.840673 0.717136,-0.83666 1.613557,-0.83666 z M 14.880711,20.732371 q -1.374512,0 -3.107592,4.960196 -1.733081,4.960196 -3.0478316,12.310848 -1.3147508,7.350652 -1.4342736,14.10369 4.2430592,-6.992084 6.7530382,-13.984167 2.509979,-7.051845 2.509979,-12.848701 0,-4.541866 -1.67332,-4.541866 z" />
    </g>
  </g>
</svg>
